<svg width="900" height="500" xmlns="http://www.w3.org/2000/svg">
<style>
  text { font-family: Consolas, 'Courier New', monospace; }
  .title { font-size: 16px; font-weight: bold; }
  .stats { font-size: 12px; fill: #555; }
  .tick { font-size: 11px; }
  .axis-label { font-size: 13px; }
  .y-axis-label { font-size: 12px; }
</style>
<rect width="100%" height="100%" fill="#fcfcfc"/>
<text x="450" y="24" text-anchor="middle" class="title">1 - PCC between Mira vs Deep ECG Templates - All 13 Subjects (1614 bins, 0.1% 0.000000)</text>
<text x="450" y="44" text-anchor="middle" class="stats">mean=0.209837  median=0.054269  IQR=[0.023136, 0.193740]</text>
<line x1="70" y1="70" x2="70" y2="440" stroke="#333" stroke-width="1"/>
<line x1="70" y1="440" x2="860" y2="440" stroke="#333" stroke-width="1"/>
<text x="18" y="255" text-anchor="middle" class="y-axis-label" transform="rotate(-90 18,255)"># bins (log)</text>
<line x1="67" y1="440.0" x2="71" y2="440.0" stroke="#333" stroke-width="1"/>
<text x="65" y="444.0" text-anchor="end" class="tick">0</text>
<line x1="67" y1="407.5" x2="71" y2="407.5" stroke="#333" stroke-width="1"/>
<text x="65" y="411.5" text-anchor="end" class="tick">1</text>
<line x1="71" y1="407.5" x2="10069" y2="407.5" stroke="#eee" stroke-width="0.5" stroke-dasharray="2,2"/>
<line x1="67" y1="327.5" x2="71" y2="327.5" stroke="#333" stroke-width="1"/>
<text x="65" y="331.5" text-anchor="end" class="tick">10</text>
<line x1="71" y1="327.5" x2="10069" y2="327.5" stroke="#eee" stroke-width="0.5" stroke-dasharray="2,2"/>
<line x1="67" y1="223.4" x2="71" y2="223.4" stroke="#333" stroke-width="1"/>
<text x="65" y="227.4" text-anchor="end" class="tick">100</text>
<line x1="71" y1="223.4" x2="10069" y2="223.4" stroke="#eee" stroke-width="0.5" stroke-dasharray="2,2"/>
<line x1="67" y1="155.4" x2="71" y2="155.4" stroke="#333" stroke-width="1"/>
<text x="65" y="159.4" text-anchor="end" class="tick" fill="#e74c3c" font-weight="bold">429</text>
<line x1="71" y1="155.4" x2="10069" y2="155.4" stroke="#eee" stroke-width="0.5" stroke-dasharray="2,2"/>
<rect x="70.5" y="407.5" width="8.9" height="32.5" fill="#1abc9c" fill-opacity="0.85"><title>[0, 0]: 1</title></rect>
<rect x="80.4" y="155.4" width="8.9" height="284.6" fill="#1abc9c" fill-opacity="0.85"><title>(0.000000, 0.024266]: 429</title></rect>
<rect x="90.2" y="168.0" width="8.9" height="272.0" fill="#1abc9c" fill-opacity="0.85"><title>(0.024266, 0.048531]: 328</title></rect>
<rect x="100.1" y="199.8" width="8.9" height="240.2" fill="#1abc9c" fill-opacity="0.85"><title>(0.048531, 0.072797]: 166</title></rect>
<rect x="110.0" y="219.4" width="8.9" height="220.6" fill="#1abc9c" fill-opacity="0.85"><title>(0.072797, 0.097063]: 109</title></rect>
<rect x="119.9" y="244.1" width="8.9" height="195.9" fill="#1abc9c" fill-opacity="0.85"><title>(0.097063, 0.121328]: 64</title></rect>
<rect x="129.8" y="251.1" width="8.9" height="188.9" fill="#1abc9c" fill-opacity="0.85"><title>(0.121328, 0.145594]: 55</title></rect>
<rect x="139.6" y="273.1" width="8.9" height="166.9" fill="#1abc9c" fill-opacity="0.85"><title>(0.145594, 0.169860]: 34</title></rect>
<rect x="149.5" y="287.1" width="8.9" height="152.9" fill="#1abc9c" fill-opacity="0.85"><title>(0.169860, 0.194125]: 25</title></rect>
<rect x="159.4" y="297.1" width="8.9" height="142.9" fill="#1abc9c" fill-opacity="0.85"><title>(0.194125, 0.218391]: 20</title></rect>
<rect x="169.2" y="316.1" width="8.9" height="123.9" fill="#1abc9c" fill-opacity="0.85"><title>(0.218391, 0.242656]: 13</title></rect>
<rect x="179.1" y="304.3" width="8.9" height="135.7" fill="#1abc9c" fill-opacity="0.85"><title>(0.242656, 0.266922]: 17</title></rect>
<rect x="189.0" y="316.1" width="8.9" height="123.9" fill="#1abc9c" fill-opacity="0.85"><title>(0.266922, 0.291188]: 13</title></rect>
<rect x="198.9" y="319.6" width="8.9" height="120.4" fill="#1abc9c" fill-opacity="0.85"><title>(0.291188, 0.315453]: 12</title></rect>
<rect x="208.8" y="312.9" width="8.9" height="127.1" fill="#1abc9c" fill-opacity="0.85"><title>(0.315453, 0.339719]: 14</title></rect>
<rect x="218.6" y="331.9" width="8.9" height="108.1" fill="#1abc9c" fill-opacity="0.85"><title>(0.339719, 0.363985]: 9</title></rect>
<rect x="228.5" y="336.9" width="8.9" height="103.1" fill="#1abc9c" fill-opacity="0.85"><title>(0.363985, 0.388250]: 8</title></rect>
<rect x="238.4" y="327.5" width="8.9" height="112.5" fill="#1abc9c" fill-opacity="0.85"><title>(0.388250, 0.412516]: 10</title></rect>
<rect x="248.2" y="342.4" width="8.9" height="97.6" fill="#1abc9c" fill-opacity="0.85"><title>(0.412516, 0.436782]: 7</title></rect>
<rect x="258.1" y="319.6" width="8.9" height="120.4" fill="#1abc9c" fill-opacity="0.85"><title>(0.436782, 0.461047]: 12</title></rect>
<rect x="268.0" y="355.9" width="8.9" height="84.1" fill="#1abc9c" fill-opacity="0.85"><title>(0.461047, 0.485313]: 5</title></rect>
<rect x="277.9" y="342.4" width="8.9" height="97.6" fill="#1abc9c" fill-opacity="0.85"><title>(0.485313, 0.509579]: 7</title></rect>
<rect x="287.8" y="342.4" width="8.9" height="97.6" fill="#1abc9c" fill-opacity="0.85"><title>(0.509579, 0.533844]: 7</title></rect>
<rect x="297.6" y="355.9" width="8.9" height="84.1" fill="#1abc9c" fill-opacity="0.85"><title>(0.533844, 0.558110]: 5</title></rect>
<rect x="307.5" y="331.9" width="8.9" height="108.1" fill="#1abc9c" fill-opacity="0.85"><title>(0.558110, 0.582375]: 9</title></rect>
<rect x="317.4" y="342.4" width="8.9" height="97.6" fill="#1abc9c" fill-opacity="0.85"><title>(0.582375, 0.606641]: 7</title></rect>
<rect x="327.2" y="364.5" width="8.9" height="75.5" fill="#1abc9c" fill-opacity="0.85"><title>(0.606641, 0.630907]: 4</title></rect>
<rect x="337.1" y="342.4" width="8.9" height="97.6" fill="#1abc9c" fill-opacity="0.85"><title>(0.630907, 0.655172]: 7</title></rect>
<rect x="347.0" y="355.9" width="8.9" height="84.1" fill="#1abc9c" fill-opacity="0.85"><title>(0.655172, 0.679438]: 5</title></rect>
<rect x="356.9" y="364.5" width="8.9" height="75.5" fill="#1abc9c" fill-opacity="0.85"><title>(0.679438, 0.703704]: 4</title></rect>
<rect x="366.8" y="342.4" width="8.9" height="97.6" fill="#1abc9c" fill-opacity="0.85"><title>(0.703704, 0.727969]: 7</title></rect>
<rect x="376.6" y="355.9" width="8.9" height="84.1" fill="#1abc9c" fill-opacity="0.85"><title>(0.727969, 0.752235]: 5</title></rect>
<rect x="386.5" y="316.1" width="8.9" height="123.9" fill="#1abc9c" fill-opacity="0.85"><title>(0.752235, 0.776501]: 13</title></rect>
<rect x="396.4" y="331.9" width="8.9" height="108.1" fill="#1abc9c" fill-opacity="0.85"><title>(0.776501, 0.800766]: 9</title></rect>
<rect x="406.2" y="336.9" width="8.9" height="103.1" fill="#1abc9c" fill-opacity="0.85"><title>(0.800766, 0.825032]: 8</title></rect>
<rect x="416.1" y="336.9" width="8.9" height="103.1" fill="#1abc9c" fill-opacity="0.85"><title>(0.825032, 0.849298]: 8</title></rect>
<rect x="426.0" y="309.9" width="8.9" height="130.1" fill="#1abc9c" fill-opacity="0.85"><title>(0.849298, 0.873563]: 15</title></rect>
<rect x="435.9" y="342.4" width="8.9" height="97.6" fill="#1abc9c" fill-opacity="0.85"><title>(0.873563, 0.897829]: 7</title></rect>
<rect x="445.8" y="327.5" width="8.9" height="112.5" fill="#1abc9c" fill-opacity="0.85"><title>(0.897829, 0.922095]: 10</title></rect>
<rect x="455.6" y="336.9" width="8.9" height="103.1" fill="#1abc9c" fill-opacity="0.85"><title>(0.922095, 0.946360]: 8</title></rect>
<rect x="465.5" y="331.9" width="8.9" height="108.1" fill="#1abc9c" fill-opacity="0.85"><title>(0.946360, 0.970626]: 9</title></rect>
<rect x="475.4" y="294.9" width="8.9" height="145.1" fill="#1abc9c" fill-opacity="0.85"><title>(0.970626, 0.994891]: 21</title></rect>
<rect x="485.2" y="319.6" width="8.9" height="120.4" fill="#1abc9c" fill-opacity="0.85"><title>(0.994891, 1.019157]: 12</title></rect>
<rect x="495.1" y="304.3" width="8.9" height="135.7" fill="#1abc9c" fill-opacity="0.85"><title>(1.019157, 1.043423]: 17</title></rect>
<rect x="505.0" y="327.5" width="8.9" height="112.5" fill="#1abc9c" fill-opacity="0.85"><title>(1.043423, 1.067688]: 10</title></rect>
<rect x="514.9" y="348.7" width="8.9" height="91.3" fill="#1abc9c" fill-opacity="0.85"><title>(1.067688, 1.091954]: 6</title></rect>
<rect x="524.8" y="355.9" width="8.9" height="84.1" fill="#1abc9c" fill-opacity="0.85"><title>(1.091954, 1.116220]: 5</title></rect>
<rect x="534.6" y="323.4" width="8.9" height="116.6" fill="#1abc9c" fill-opacity="0.85"><title>(1.116220, 1.140485]: 11</title></rect>
<rect x="544.5" y="348.7" width="8.9" height="91.3" fill="#1abc9c" fill-opacity="0.85"><title>(1.140485, 1.164751]: 6</title></rect>
<rect x="554.4" y="336.9" width="8.9" height="103.1" fill="#1abc9c" fill-opacity="0.85"><title>(1.164751, 1.189017]: 8</title></rect>
<rect x="564.2" y="355.9" width="8.9" height="84.1" fill="#1abc9c" fill-opacity="0.85"><title>(1.189017, 1.213282]: 5</title></rect>
<rect x="574.1" y="407.5" width="8.9" height="32.5" fill="#1abc9c" fill-opacity="0.85"><title>(1.213282, 1.237548]: 1</title></rect>
<rect x="584.0" y="407.5" width="8.9" height="32.5" fill="#1abc9c" fill-opacity="0.85"><title>(1.237548, 1.261814]: 1</title></rect>
<rect x="593.9" y="388.4" width="8.9" height="51.6" fill="#1abc9c" fill-opacity="0.85"><title>(1.261814, 1.286079]: 2</title></rect>
<rect x="603.8" y="388.4" width="8.9" height="51.6" fill="#1abc9c" fill-opacity="0.85"><title>(1.286079, 1.310345]: 2</title></rect>
<rect x="633.4" y="407.5" width="8.9" height="32.5" fill="#1abc9c" fill-opacity="0.85"><title>(1.358876, 1.383142]: 1</title></rect>
<rect x="850.6" y="407.5" width="8.9" height="32.5" fill="#1abc9c" fill-opacity="0.85"><title>(1.892720, 1.916986]: 1</title></rect>
<text x="70.0" y="456" text-anchor="middle" class="tick">0.000000</text>
<text x="228.0" y="456" text-anchor="middle" class="tick">0.383397</text>
<text x="386.0" y="456" text-anchor="middle" class="tick">0.766794</text>
<text x="544.0" y="456" text-anchor="middle" class="tick">1.150192</text>
<text x="702.0" y="456" text-anchor="middle" class="tick">1.533589</text>
<text x="860.0" y="456" text-anchor="middle" class="tick">1.916986</text>
<text x="465" y="478" text-anchor="middle" class="axis-label">1 - PCC</text>
</svg>