<svg width="900" height="500" xmlns="http://www.w3.org/2000/svg">
<style>
  text { font-family: Consolas, 'Courier New', monospace; }
  .title { font-size: 16px; font-weight: bold; }
  .stats { font-size: 12px; fill: #555; }
  .tick { font-size: 11px; }
  .axis-label { font-size: 13px; }
  .y-axis-label { font-size: 12px; }
</style>
<rect width="100%" height="100%" fill="#fcfcfc"/>
<text x="450" y="24" text-anchor="middle" class="title">Mira vs Deep: R-Location SSD (pooled) - All 13 Subjects (1644 bins, 0.0% 0.000000 err)</text>
<text x="450" y="44" text-anchor="middle" class="stats">mean=56.373446  median=0.000265  IQR=[0.000112, 4.000135]</text>
<line x1="70" y1="70" x2="70" y2="440" stroke="#333" stroke-width="1"/>
<line x1="70" y1="440" x2="860" y2="440" stroke="#333" stroke-width="1"/>
<text x="18" y="255" text-anchor="middle" class="y-axis-label" transform="rotate(-90 18,255)"># bins (log)</text>
<line x1="67" y1="440.0" x2="71" y2="440.0" stroke="#333" stroke-width="1"/>
<text x="65" y="444.0" text-anchor="end" class="tick">0</text>
<line x1="67" y1="412.5" x2="71" y2="412.5" stroke="#333" stroke-width="1"/>
<text x="65" y="416.5" text-anchor="end" class="tick">1</text>
<line x1="71" y1="412.5" x2="10069" y2="412.5" stroke="#eee" stroke-width="0.5" stroke-dasharray="2,2"/>
<line x1="67" y1="345.0" x2="71" y2="345.0" stroke="#333" stroke-width="1"/>
<text x="65" y="349.0" text-anchor="end" class="tick">10</text>
<line x1="71" y1="345.0" x2="10069" y2="345.0" stroke="#eee" stroke-width="0.5" stroke-dasharray="2,2"/>
<line x1="67" y1="257.1" x2="71" y2="257.1" stroke="#333" stroke-width="1"/>
<text x="65" y="261.1" text-anchor="end" class="tick">100</text>
<line x1="71" y1="257.1" x2="10069" y2="257.1" stroke="#eee" stroke-width="0.5" stroke-dasharray="2,2"/>
<line x1="67" y1="166.2" x2="71" y2="166.2" stroke="#333" stroke-width="1"/>
<text x="65" y="170.2" text-anchor="end" class="tick">1000</text>
<line x1="71" y1="166.2" x2="10069" y2="166.2" stroke="#eee" stroke-width="0.5" stroke-dasharray="2,2"/>
<line x1="67" y1="155.4" x2="71" y2="155.4" stroke="#333" stroke-width="1"/>
<text x="65" y="159.4" text-anchor="end" class="tick" fill="#e74c3c" font-weight="bold">1314</text>
<line x1="71" y1="155.4" x2="10069" y2="155.4" stroke="#eee" stroke-width="0.5" stroke-dasharray="2,2"/>
<rect x="80.4" y="155.4" width="8.9" height="284.6" fill="#3498db" fill-opacity="0.85"><title>[7.553931, 15.107861): 1314</title></rect>
<text x="860.0" y="456" text-anchor="middle" class="tick">596.760519</text>
<rect x="90.2" y="284.2" width="8.9" height="155.8" fill="#3498db" fill-opacity="0.85"><title>[15.107861, 22.661792): 50</title></rect>
<text x="860.0" y="456" text-anchor="middle" class="tick">596.760519</text>
<rect x="100.1" y="352.9" width="8.9" height="87.1" fill="#3498db" fill-opacity="0.85"><title>[22.661792, 30.215722): 8</title></rect>
<text x="860.0" y="456" text-anchor="middle" class="tick">596.760519</text>
<rect x="110.0" y="369.0" width="8.9" height="71.0" fill="#3498db" fill-opacity="0.85"><title>[30.215722, 37.769653): 5</title></rect>
<text x="860.0" y="456" text-anchor="middle" class="tick">596.760519</text>
<rect x="119.9" y="376.2" width="8.9" height="63.8" fill="#3498db" fill-opacity="0.85"><title>[37.769653, 45.323584): 4</title></rect>
<text x="860.0" y="456" text-anchor="middle" class="tick">596.760519</text>
<rect x="129.8" y="369.0" width="8.9" height="71.0" fill="#3498db" fill-opacity="0.85"><title>[45.323584, 52.877514): 5</title></rect>
<text x="860.0" y="456" text-anchor="middle" class="tick">596.760519</text>
<rect x="139.6" y="369.0" width="8.9" height="71.0" fill="#3498db" fill-opacity="0.85"><title>[52.877514, 60.431445): 5</title></rect>
<text x="860.0" y="456" text-anchor="middle" class="tick">596.760519</text>
<rect x="149.5" y="385.1" width="8.9" height="54.9" fill="#3498db" fill-opacity="0.85"><title>[60.431445, 67.985376): 3</title></rect>
<text x="860.0" y="456" text-anchor="middle" class="tick">596.760519</text>
<rect x="159.4" y="369.0" width="8.9" height="71.0" fill="#3498db" fill-opacity="0.85"><title>[67.985376, 75.539306): 5</title></rect>
<text x="860.0" y="456" text-anchor="middle" class="tick">596.760519</text>
<rect x="169.2" y="385.1" width="8.9" height="54.9" fill="#3498db" fill-opacity="0.85"><title>[75.539306, 83.093237): 3</title></rect>
<text x="860.0" y="456" text-anchor="middle" class="tick">596.760519</text>
<rect x="179.1" y="376.2" width="8.9" height="63.8" fill="#3498db" fill-opacity="0.85"><title>[83.093237, 90.647167): 4</title></rect>
<text x="860.0" y="456" text-anchor="middle" class="tick">596.760519</text>
<rect x="189.0" y="369.0" width="8.9" height="71.0" fill="#3498db" fill-opacity="0.85"><title>[90.647167, 98.201098): 5</title></rect>
<text x="860.0" y="456" text-anchor="middle" class="tick">596.760519</text>
<rect x="198.9" y="396.5" width="8.9" height="43.5" fill="#3498db" fill-opacity="0.85"><title>[98.201098, 105.755029): 2</title></rect>
<text x="860.0" y="456" text-anchor="middle" class="tick">596.760519</text>
<rect x="208.8" y="385.1" width="8.9" height="54.9" fill="#3498db" fill-opacity="0.85"><title>[105.755029, 113.308959): 3</title></rect>
<text x="860.0" y="456" text-anchor="middle" class="tick">596.760519</text>
<rect x="218.6" y="385.1" width="8.9" height="54.9" fill="#3498db" fill-opacity="0.85"><title>[113.308959, 120.862890): 3</title></rect>
<text x="860.0" y="456" text-anchor="middle" class="tick">596.760519</text>
<rect x="228.5" y="412.5" width="8.9" height="27.5" fill="#3498db" fill-opacity="0.85"><title>[120.862890, 128.416821): 1</title></rect>
<text x="860.0" y="456" text-anchor="middle" class="tick">596.760519</text>
<rect x="238.4" y="376.2" width="8.9" height="63.8" fill="#3498db" fill-opacity="0.85"><title>[128.416821, 135.970751): 4</title></rect>
<text x="860.0" y="456" text-anchor="middle" class="tick">596.760519</text>
<rect x="258.1" y="412.5" width="8.9" height="27.5" fill="#3498db" fill-opacity="0.85"><title>[143.524682, 151.078612): 1</title></rect>
<text x="860.0" y="456" text-anchor="middle" class="tick">596.760519</text>
<rect x="268.0" y="385.1" width="8.9" height="54.9" fill="#3498db" fill-opacity="0.85"><title>[151.078612, 158.632543): 3</title></rect>
<text x="860.0" y="456" text-anchor="middle" class="tick">596.760519</text>
<rect x="277.9" y="412.5" width="8.9" height="27.5" fill="#3498db" fill-opacity="0.85"><title>[158.632543, 166.186474): 1</title></rect>
<text x="860.0" y="456" text-anchor="middle" class="tick">596.760519</text>
<rect x="287.8" y="412.5" width="8.9" height="27.5" fill="#3498db" fill-opacity="0.85"><title>[166.186474, 173.740404): 1</title></rect>
<text x="860.0" y="456" text-anchor="middle" class="tick">596.760519</text>
<rect x="297.6" y="396.5" width="8.9" height="43.5" fill="#3498db" fill-opacity="0.85"><title>[173.740404, 181.294335): 2</title></rect>
<text x="860.0" y="456" text-anchor="middle" class="tick">596.760519</text>
<rect x="307.5" y="396.5" width="8.9" height="43.5" fill="#3498db" fill-opacity="0.85"><title>[181.294335, 188.848266): 2</title></rect>
<text x="860.0" y="456" text-anchor="middle" class="tick">596.760519</text>
<rect x="317.4" y="396.5" width="8.9" height="43.5" fill="#3498db" fill-opacity="0.85"><title>[188.848266, 196.402196): 2</title></rect>
<text x="860.0" y="456" text-anchor="middle" class="tick">596.760519</text>
<rect x="327.2" y="396.5" width="8.9" height="43.5" fill="#3498db" fill-opacity="0.85"><title>[196.402196, 203.956127): 2</title></rect>
<text x="860.0" y="456" text-anchor="middle" class="tick">596.760519</text>
<rect x="337.1" y="412.5" width="8.9" height="27.5" fill="#3498db" fill-opacity="0.85"><title>[203.956127, 211.510057): 1</title></rect>
<text x="860.0" y="456" text-anchor="middle" class="tick">596.760519</text>
<rect x="347.0" y="412.5" width="8.9" height="27.5" fill="#3498db" fill-opacity="0.85"><title>[211.510057, 219.063988): 1</title></rect>
<text x="860.0" y="456" text-anchor="middle" class="tick">596.760519</text>
<rect x="356.9" y="412.5" width="8.9" height="27.5" fill="#3498db" fill-opacity="0.85"><title>[219.063988, 226.617919): 1</title></rect>
<text x="860.0" y="456" text-anchor="middle" class="tick">596.760519</text>
<rect x="366.8" y="412.5" width="8.9" height="27.5" fill="#3498db" fill-opacity="0.85"><title>[226.617919, 234.171849): 1</title></rect>
<text x="860.0" y="456" text-anchor="middle" class="tick">596.760519</text>
<rect x="376.6" y="396.5" width="8.9" height="43.5" fill="#3498db" fill-opacity="0.85"><title>[234.171849, 241.725780): 2</title></rect>
<text x="860.0" y="456" text-anchor="middle" class="tick">596.760519</text>
<rect x="386.5" y="362.9" width="8.9" height="77.1" fill="#3498db" fill-opacity="0.85"><title>[241.725780, 249.279710): 6</title></rect>
<text x="860.0" y="456" text-anchor="middle" class="tick">596.760519</text>
<rect x="396.4" y="412.5" width="8.9" height="27.5" fill="#3498db" fill-opacity="0.85"><title>[249.279710, 256.833641): 1</title></rect>
<text x="860.0" y="456" text-anchor="middle" class="tick">596.760519</text>
<rect x="406.2" y="412.5" width="8.9" height="27.5" fill="#3498db" fill-opacity="0.85"><title>[256.833641, 264.387572): 1</title></rect>
<text x="860.0" y="456" text-anchor="middle" class="tick">596.760519</text>
<rect x="416.1" y="376.2" width="8.9" height="63.8" fill="#3498db" fill-opacity="0.85"><title>[264.387572, 271.941502): 4</title></rect>
<text x="860.0" y="456" text-anchor="middle" class="tick">596.760519</text>
<rect x="426.0" y="396.5" width="8.9" height="43.5" fill="#3498db" fill-opacity="0.85"><title>[271.941502, 279.495433): 2</title></rect>
<text x="860.0" y="456" text-anchor="middle" class="tick">596.760519</text>
<rect x="435.9" y="396.5" width="8.9" height="43.5" fill="#3498db" fill-opacity="0.85"><title>[279.495433, 287.049364): 2</title></rect>
<text x="860.0" y="456" text-anchor="middle" class="tick">596.760519</text>
<rect x="445.8" y="385.1" width="8.9" height="54.9" fill="#3498db" fill-opacity="0.85"><title>[287.049364, 294.603294): 3</title></rect>
<text x="860.0" y="456" text-anchor="middle" class="tick">596.760519</text>
<rect x="455.6" y="376.2" width="8.9" height="63.8" fill="#3498db" fill-opacity="0.85"><title>[294.603294, 302.157225): 4</title></rect>
<text x="860.0" y="456" text-anchor="middle" class="tick">596.760519</text>
<rect x="465.5" y="396.5" width="8.9" height="43.5" fill="#3498db" fill-opacity="0.85"><title>[302.157225, 309.711155): 2</title></rect>
<text x="860.0" y="456" text-anchor="middle" class="tick">596.760519</text>
<rect x="475.4" y="396.5" width="8.9" height="43.5" fill="#3498db" fill-opacity="0.85"><title>[309.711155, 317.265086): 2</title></rect>
<text x="860.0" y="456" text-anchor="middle" class="tick">596.760519</text>
<rect x="485.2" y="376.2" width="8.9" height="63.8" fill="#3498db" fill-opacity="0.85"><title>[317.265086, 324.819017): 4</title></rect>
<text x="860.0" y="456" text-anchor="middle" class="tick">596.760519</text>
<rect x="495.1" y="385.1" width="8.9" height="54.9" fill="#3498db" fill-opacity="0.85"><title>[324.819017, 332.372947): 3</title></rect>
<text x="860.0" y="456" text-anchor="middle" class="tick">596.760519</text>
<rect x="505.0" y="412.5" width="8.9" height="27.5" fill="#3498db" fill-opacity="0.85"><title>[332.372947, 339.926878): 1</title></rect>
<text x="860.0" y="456" text-anchor="middle" class="tick">596.760519</text>
<rect x="514.9" y="369.0" width="8.9" height="71.0" fill="#3498db" fill-opacity="0.85"><title>[339.926878, 347.480809): 5</title></rect>
<text x="860.0" y="456" text-anchor="middle" class="tick">596.760519</text>
<rect x="524.8" y="369.0" width="8.9" height="71.0" fill="#3498db" fill-opacity="0.85"><title>[347.480809, 355.034739): 5</title></rect>
<text x="860.0" y="456" text-anchor="middle" class="tick">596.760519</text>
<rect x="534.6" y="376.2" width="8.9" height="63.8" fill="#3498db" fill-opacity="0.85"><title>[355.034739, 362.588670): 4</title></rect>
<text x="860.0" y="456" text-anchor="middle" class="tick">596.760519</text>
<rect x="544.5" y="376.2" width="8.9" height="63.8" fill="#3498db" fill-opacity="0.85"><title>[362.588670, 370.142600): 4</title></rect>
<text x="860.0" y="456" text-anchor="middle" class="tick">596.760519</text>
<rect x="554.4" y="369.0" width="8.9" height="71.0" fill="#3498db" fill-opacity="0.85"><title>[370.142600, 377.696531): 5</title></rect>
<text x="860.0" y="456" text-anchor="middle" class="tick">596.760519</text>
<rect x="564.2" y="362.9" width="8.9" height="77.1" fill="#3498db" fill-opacity="0.85"><title>[377.696531, 385.250462): 6</title></rect>
<text x="860.0" y="456" text-anchor="middle" class="tick">596.760519</text>
<rect x="574.1" y="369.0" width="8.9" height="71.0" fill="#3498db" fill-opacity="0.85"><title>[385.250462, 392.804392): 5</title></rect>
<text x="860.0" y="456" text-anchor="middle" class="tick">596.760519</text>
<rect x="584.0" y="357.6" width="8.9" height="82.4" fill="#3498db" fill-opacity="0.85"><title>[392.804392, 400.358323): 7</title></rect>
<text x="860.0" y="456" text-anchor="middle" class="tick">596.760519</text>
<rect x="593.9" y="369.0" width="8.9" height="71.0" fill="#3498db" fill-opacity="0.85"><title>[400.358323, 407.912253): 5</title></rect>
<text x="860.0" y="456" text-anchor="middle" class="tick">596.760519</text>
<rect x="603.8" y="376.2" width="8.9" height="63.8" fill="#3498db" fill-opacity="0.85"><title>[407.912253, 415.466184): 4</title></rect>
<text x="860.0" y="456" text-anchor="middle" class="tick">596.760519</text>
<rect x="613.6" y="352.9" width="8.9" height="87.1" fill="#3498db" fill-opacity="0.85"><title>[415.466184, 423.020115): 8</title></rect>
<text x="860.0" y="456" text-anchor="middle" class="tick">596.760519</text>
<rect x="623.5" y="385.1" width="8.9" height="54.9" fill="#3498db" fill-opacity="0.85"><title>[423.020115, 430.574045): 3</title></rect>
<text x="860.0" y="456" text-anchor="middle" class="tick">596.760519</text>
<rect x="633.4" y="362.9" width="8.9" height="77.1" fill="#3498db" fill-opacity="0.85"><title>[430.574045, 438.127976): 6</title></rect>
<text x="860.0" y="456" text-anchor="middle" class="tick">596.760519</text>
<rect x="643.2" y="352.9" width="8.9" height="87.1" fill="#3498db" fill-opacity="0.85"><title>[438.127976, 445.681907): 8</title></rect>
<text x="860.0" y="456" text-anchor="middle" class="tick">596.760519</text>
<rect x="653.1" y="352.9" width="8.9" height="87.1" fill="#3498db" fill-opacity="0.85"><title>[445.681907, 453.235837): 8</title></rect>
<text x="860.0" y="456" text-anchor="middle" class="tick">596.760519</text>
<rect x="663.0" y="369.0" width="8.9" height="71.0" fill="#3498db" fill-opacity="0.85"><title>[453.235837, 460.789768): 5</title></rect>
<text x="860.0" y="456" text-anchor="middle" class="tick">596.760519</text>
<rect x="672.9" y="362.9" width="8.9" height="77.1" fill="#3498db" fill-opacity="0.85"><title>[460.789768, 468.343698): 6</title></rect>
<text x="860.0" y="456" text-anchor="middle" class="tick">596.760519</text>
<rect x="682.8" y="385.1" width="8.9" height="54.9" fill="#3498db" fill-opacity="0.85"><title>[468.343698, 475.897629): 3</title></rect>
<text x="860.0" y="456" text-anchor="middle" class="tick">596.760519</text>
<rect x="692.6" y="362.9" width="8.9" height="77.1" fill="#3498db" fill-opacity="0.85"><title>[475.897629, 483.451560): 6</title></rect>
<text x="860.0" y="456" text-anchor="middle" class="tick">596.760519</text>
<rect x="702.5" y="362.9" width="8.9" height="77.1" fill="#3498db" fill-opacity="0.85"><title>[483.451560, 491.005490): 6</title></rect>
<text x="860.0" y="456" text-anchor="middle" class="tick">596.760519</text>
<rect x="712.4" y="357.6" width="8.9" height="82.4" fill="#3498db" fill-opacity="0.85"><title>[491.005490, 498.559421): 7</title></rect>
<text x="860.0" y="456" text-anchor="middle" class="tick">596.760519</text>
<rect x="722.2" y="348.7" width="8.9" height="91.3" fill="#3498db" fill-opacity="0.85"><title>[498.559421, 506.113352): 9</title></rect>
<text x="860.0" y="456" text-anchor="middle" class="tick">596.760519</text>
<rect x="732.1" y="352.9" width="8.9" height="87.1" fill="#3498db" fill-opacity="0.85"><title>[506.113352, 513.667282): 8</title></rect>
<text x="860.0" y="456" text-anchor="middle" class="tick">596.760519</text>
<rect x="742.0" y="376.2" width="8.9" height="63.8" fill="#3498db" fill-opacity="0.85"><title>[513.667282, 521.221213): 4</title></rect>
<text x="860.0" y="456" text-anchor="middle" class="tick">596.760519</text>
<rect x="751.9" y="362.9" width="8.9" height="77.1" fill="#3498db" fill-opacity="0.85"><title>[521.221213, 528.775143): 6</title></rect>
<text x="860.0" y="456" text-anchor="middle" class="tick">596.760519</text>
<rect x="761.8" y="385.1" width="8.9" height="54.9" fill="#3498db" fill-opacity="0.85"><title>[528.775143, 536.329074): 3</title></rect>
<text x="860.0" y="456" text-anchor="middle" class="tick">596.760519</text>
<rect x="771.6" y="385.1" width="8.9" height="54.9" fill="#3498db" fill-opacity="0.85"><title>[536.329074, 543.883005): 3</title></rect>
<text x="860.0" y="456" text-anchor="middle" class="tick">596.760519</text>
<rect x="781.5" y="396.5" width="8.9" height="43.5" fill="#3498db" fill-opacity="0.85"><title>[543.883005, 551.436935): 2</title></rect>
<text x="860.0" y="456" text-anchor="middle" class="tick">596.760519</text>
<rect x="791.4" y="396.5" width="8.9" height="43.5" fill="#3498db" fill-opacity="0.85"><title>[551.436935, 558.990866): 2</title></rect>
<text x="860.0" y="456" text-anchor="middle" class="tick">596.760519</text>
<rect x="801.2" y="376.2" width="8.9" height="63.8" fill="#3498db" fill-opacity="0.85"><title>[558.990866, 566.544797): 4</title></rect>
<text x="860.0" y="456" text-anchor="middle" class="tick">596.760519</text>
<rect x="811.1" y="396.5" width="8.9" height="43.5" fill="#3498db" fill-opacity="0.85"><title>[566.544797, 574.098727): 2</title></rect>
<text x="860.0" y="456" text-anchor="middle" class="tick">596.760519</text>
<rect x="821.0" y="385.1" width="8.9" height="54.9" fill="#3498db" fill-opacity="0.85"><title>[574.098727, 581.652658): 3</title></rect>
<text x="860.0" y="456" text-anchor="middle" class="tick">596.760519</text>
<rect x="840.8" y="412.5" width="8.9" height="27.5" fill="#3498db" fill-opacity="0.85"><title>[589.206588, 596.760519): 1</title></rect>
<text x="860.0" y="456" text-anchor="middle" class="tick">596.760519</text>
<rect x="850.6" y="396.5" width="8.9" height="43.5" fill="#3498db" fill-opacity="0.85"><title>[596.760519, 604.314450): 2</title></rect>
<text x="860.0" y="456" text-anchor="middle" class="tick">596.760519</text>
<text x="465" y="478" text-anchor="middle" class="axis-label">SSD (s^2)</text>
</svg>